<?xml version="1.0" encoding="UTF-8"?>
<svg version="1.1" xmlns="http://www.w3.org/2000/svg" width="2133" height="2133">
<path d="M0 0 C3.52403677 0.00818523 7.04803884 -0.00139563 10.57207188 -0.00851054 C16.74950811 -0.01861312 22.92686468 -0.01775085 29.1043025 -0.00945991 C38.35214042 0.0028955 47.59991459 -0.00224155 56.84775409 -0.01060784 C72.61435867 -0.02436599 88.38093415 -0.02397828 104.14754132 -0.0157652 C120.11512365 -0.00749822 136.08268686 -0.00578102 152.05027035 -0.01197721 C153.06051107 -0.01236473 154.0707518 -0.01275224 155.11160588 -0.01315151 C159.22646675 -0.0147514 163.34132761 -0.01639753 167.45618844 -0.01810233 C205.74358695 -0.03395368 244.03097263 -0.03505381 282.318373 -0.02665998 C284.01866932 -0.0262874 284.01866932 -0.0262874 285.75331506 -0.02590729 C286.88866792 -0.0256585 288.02402078 -0.02540972 289.19377826 -0.02515339 C323.79788259 -0.01758065 358.40198163 -0.01563115 393.00608662 -0.01922132 C395.32429917 -0.01945376 397.64251172 -0.01968523 399.96072428 -0.01991573 C409.27691109 -0.02084715 418.59309791 -0.02180315 427.90928472 -0.02279502 C453.951076 -0.0255459 479.99286729 -0.02725781 506.0346587 -0.02815343 C507.22049091 -0.02819437 508.40632313 -0.02823531 509.62808965 -0.02827749 C547.40776325 -0.02950512 585.18743502 -0.02612567 622.96710804 -0.0196047 C624.19226383 -0.01939395 625.41741962 -0.0191832 626.67970134 -0.01896607 C646.57481122 -0.01553132 666.46992106 -0.01187289 686.36503089 -0.00819555 C765.26889153 0.0063732 844.1727369 0.00569699 923.07659748 -0.0088873 C942.96172676 -0.01255094 962.84685604 -0.01618413 982.73198536 -0.0196047 C983.95642367 -0.01981604 985.18086199 -0.02002738 986.44240449 -0.02024513 C1024.18308147 -0.02671472 1061.92375718 -0.02945632 1099.6644347 -0.02815343 C1100.84939358 -0.02811268 1102.03435245 -0.02807193 1103.25521917 -0.02802994 C1129.26819045 -0.02709246 1155.2811616 -0.02519146 1181.29413274 -0.02242192 C1190.60193716 -0.02143452 1199.90974159 -0.02049528 1209.21754602 -0.01956979 C1211.53303611 -0.01933762 1213.84852621 -0.01910143 1216.16401631 -0.0188612 C1250.75793922 -0.01528197 1285.35185617 -0.01832676 1319.94577834 -0.02590729 C1321.07930922 -0.02615568 1322.2128401 -0.02640407 1323.38072041 -0.02665998 C1324.51215562 -0.02690803 1325.64359083 -0.02715607 1326.80931196 -0.02741164 C1364.98738122 -0.03568997 1403.16543512 -0.03263502 1441.34350219 -0.01681775 C1445.4452758 -0.01516072 1449.54704942 -0.01355061 1453.64882305 -0.01197721 C1455.15876667 -0.01139128 1455.15876667 -0.01139128 1456.69921421 -0.01079351 C1472.62202081 -0.00488222 1488.54480827 -0.00898978 1504.46761314 -0.01728423 C1520.13392251 -0.02523079 1535.80019966 -0.02241487 1551.46650495 -0.00824196 C1560.64405311 -0.00025537 1569.82151278 -0.00036927 1578.99905665 -0.01268675 C1585.10553415 -0.02005487 1591.21194321 -0.01641496 1597.3184125 -0.00408619 C1600.77262408 0.00258822 1604.22666038 0.00485598 1607.68086366 -0.00653574 C1628.15268737 -0.05986459 1648.19749833 1.22456598 1668.1620467 6.00722598 C1669.76922566 6.39007754 1669.76922566 6.39007754 1671.40887287 6.78066348 C1707.62655348 15.74195698 1741.06661426 32.3447811 1770.3495467 55.38222598 C1771.79200764 56.50371035 1771.79200764 56.50371035 1773.2636092 57.64785098 C1801.23521296 79.92611945 1823.7570763 107.7511403 1840.3495467 139.38222598 C1840.77880451 140.19594668 1841.20806233 141.00966738 1841.65032795 141.84804629 C1861.56411669 180.11178878 1869.87332148 221.11221133 1869.73177268 264.03267928 C1869.72358744 267.55671604 1869.73316831 271.08071812 1869.74028322 274.60475116 C1869.7503858 280.78218739 1869.74952353 286.95954396 1869.74123259 293.13698177 C1869.72887718 302.3848197 1869.73401423 311.63259387 1869.74238052 320.88043336 C1869.75613867 336.64703794 1869.75575096 352.41361342 1869.74753788 368.18022059 C1869.73927089 384.14780293 1869.7375537 400.11536613 1869.74374989 416.08294963 C1869.74413741 417.09319035 1869.74452492 418.10343107 1869.74492418 419.14428515 C1869.74652408 423.25914603 1869.74817021 427.37400688 1869.74987501 431.48886772 C1869.76572635 469.77626622 1869.76682649 508.06365191 1869.75843266 546.35105227 C1869.75818427 547.48458315 1869.75793588 548.61811404 1869.75767997 549.78599434 C1869.75743118 550.9213472 1869.75718239 552.05670005 1869.75692607 553.22645754 C1869.74935333 587.83056187 1869.74740382 622.43466091 1869.750994 657.03876589 C1869.75122644 659.35697845 1869.75145791 661.675191 1869.75168841 663.99340355 C1869.75261983 673.30959037 1869.75357583 682.62577718 1869.7545677 691.94196399 C1869.75731858 717.98375527 1869.75903049 744.02554657 1869.75992611 770.06733798 C1869.75996705 771.25317019 1869.76000799 772.4390024 1869.76005016 773.66076892 C1869.7612778 811.44044253 1869.75789834 849.22011429 1869.75137737 886.99978732 C1869.75116663 888.22494311 1869.75095588 889.4500989 1869.75073875 890.71238062 C1869.747304 910.60749049 1869.74364557 930.50260033 1869.73996823 950.39771016 C1869.72539948 1029.30157081 1869.72607568 1108.20541618 1869.74065998 1187.10927676 C1869.74432362 1206.99440604 1869.7479568 1226.87953532 1869.75137737 1246.76466464 C1869.75169439 1248.60132211 1869.75169439 1248.60132211 1869.75201781 1250.47508377 C1869.7584874 1288.21576075 1869.761229 1325.95643646 1869.75992611 1363.69711398 C1869.75988536 1364.88207285 1869.75984461 1366.06703173 1869.75980262 1367.28789845 C1869.75886514 1393.30086973 1869.75696414 1419.31384087 1869.7541946 1445.32681202 C1869.7532072 1454.63461644 1869.75226795 1463.94242087 1869.75134247 1473.25022529 C1869.7511103 1475.56571539 1869.75087411 1477.88120549 1869.75063388 1480.19669558 C1869.74705465 1514.7906185 1869.75009944 1549.38453544 1869.75767997 1583.97845761 C1869.75792836 1585.1119885 1869.75817674 1586.24551938 1869.75843266 1587.41339968 C1869.75880473 1589.1105525 1869.75880473 1589.1105525 1869.75918432 1590.84199123 C1869.76746265 1629.0200605 1869.7644077 1667.1981144 1869.74859043 1705.37618147 C1869.7469334 1709.47795507 1869.74532329 1713.57972869 1869.74374989 1717.68150233 C1869.74335927 1718.68813141 1869.74296865 1719.69476049 1869.74256619 1720.73189348 C1869.7366549 1736.65470009 1869.74076246 1752.57748754 1869.74905691 1768.50029242 C1869.75700347 1784.16660179 1869.75418755 1799.83287893 1869.74001464 1815.49918422 C1869.73202805 1824.67673238 1869.73214195 1833.85419206 1869.74445943 1843.03173593 C1869.75182755 1849.13821343 1869.74818764 1855.24462249 1869.73585887 1861.35109178 C1869.72918445 1864.80530335 1869.72691669 1868.25933966 1869.73830842 1871.71354293 C1869.79163727 1892.18536665 1868.50720669 1912.23017761 1863.7245467 1932.19472598 C1863.46931233 1933.26617861 1863.21407795 1934.33763125 1862.9511092 1935.44155215 C1853.9898157 1971.65923276 1837.38699158 2005.09929354 1814.3495467 2034.38222598 C1813.22806233 2035.82468691 1813.22806233 2035.82468691 1812.0839217 2037.29628848 C1789.80565323 2065.26789223 1761.98063238 2087.78975557 1730.3495467 2104.38222598 C1729.535826 2104.81148379 1728.7221053 2105.2407416 1727.88372639 2105.68300723 C1705.04482628 2117.56916896 1680.61376023 2125.5594611 1655.3495467 2130.38222598 C1654.59655383 2130.528514 1653.84356096 2130.67480202 1653.06775013 2130.82552301 C1632.33837508 2134.65395414 1611.11990028 2133.79058395 1590.13445281 2133.73044416 C1584.3269175 2133.71722336 1578.51938907 2133.72173588 1572.71184281 2133.72389792 C1561.46881826 2133.72548467 1550.22586634 2133.7117134 1538.98286038 2133.69239393 C1525.96181235 2133.67069419 1512.9408072 2133.66840424 1499.91973713 2133.66603945 C1465.58382891 2133.65032339 1431.2479367 2133.60843972 1396.9120467 2133.56972598 C1320.1664217 2133.50785098 1243.4207967 2133.44597598 1164.3495467 2133.38222598 C1164.3495467 1868.06222598 1164.3495467 1602.74222598 1164.3495467 1329.38222598 C1256.0895467 1329.38222598 1347.8295467 1329.38222598 1442.3495467 1329.38222598 C1442.6795467 1325.75222598 1443.0095467 1322.12222598 1443.3495467 1318.38222598 C1443.84191977 1314.7898828 1444.35801573 1311.21070193 1444.91433552 1307.6286249 C1445.07077082 1306.60351424 1445.22720611 1305.57840357 1445.38838187 1304.52222894 C1445.90920789 1301.11471492 1446.43479159 1297.70795271 1446.96038655 1294.30117129 C1447.33705617 1291.84339551 1447.71343175 1289.38557465 1448.08953694 1286.92771243 C1449.0056507 1280.94595434 1449.92485167 1274.96467805 1450.84544022 1268.98360761 C1451.92846379 1261.9461274 1453.00771416 1254.90807002 1454.08679949 1247.86998506 C1456.0253923 1235.22668237 1457.96705429 1222.58385299 1459.91058186 1209.94130801 C1461.77044657 1197.84294978 1463.62870794 1185.74434709 1465.48480061 1173.64540957 C1465.6542971 1172.54055118 1465.6542971 1172.54055118 1465.82721777 1171.41337241 C1466.28229636 1168.44692149 1466.73736814 1165.48046951 1467.19242971 1162.51401597 C1469.20705926 1149.38128764 1471.22291104 1136.24874686 1473.23909173 1123.11625658 C1473.45170388 1121.73139694 1473.66431192 1120.34653668 1473.87691566 1118.96167575 C1474.18767849 1116.9374411 1474.49845901 1114.91320917 1474.80924443 1112.88897799 C1474.98667644 1111.73329145 1475.16410845 1110.5776049 1475.34691718 1109.38689755 C1481.64551755 1068.37975202 1487.99759262 1027.38120235 1494.3495467 986.38222598 C1385.4495467 986.38222598 1276.5495467 986.38222598 1164.3495467 986.38222598 C1164.3082967 948.28785098 1164.2670467 910.19347598 1164.2245467 870.94472598 C1164.20633869 858.95588076 1164.18813069 846.96703555 1164.16937092 834.61489199 C1164.16033772 819.87429141 1164.16033772 819.87429141 1164.15865925 812.95411013 C1164.15681038 808.16352291 1164.14937354 803.37298087 1164.13839558 798.58240603 C1164.12451226 792.44109423 1164.12059445 786.29984661 1164.12340215 780.15852057 C1164.12281645 777.92380723 1164.11894955 775.68909127 1164.11111644 773.45439159 C1164.04473922 753.5677845 1164.55743948 733.4072408 1168.6620467 713.88222598 C1168.88223469 712.80094424 1169.10242268 711.7196625 1169.32928303 710.60561465 C1177.94927779 669.36310673 1198.98719068 631.42827554 1234.51458576 607.57997988 C1273.03693342 582.4348711 1317.83599222 575.15514713 1363.12884358 575.26870059 C1364.76279792 575.2690079 1366.39675239 575.26887178 1368.03070667 575.26833533 C1372.35375456 575.26811222 1376.67677401 575.27385142 1380.99981526 575.28094576 C1385.07635412 575.2866975 1389.15288653 575.28691194 1393.22942951 575.28762149 C1405.10280559 575.29284099 1416.97617652 575.30680224 1428.8495467 575.31972598 C1455.4145467 575.34035098 1481.9795467 575.36097598 1509.3495467 575.38222598 C1509.3495467 479.02222598 1509.3495467 382.66222598 1509.3495467 283.38222598 C1505.7195467 283.05222598 1502.0895467 282.72222598 1498.3495467 282.38222598 C1496.44700216 282.15088194 1494.54607584 281.90455342 1492.64935139 281.62954043 C1491.66433644 281.48859454 1490.67932148 281.34764865 1489.66445759 281.20243167 C1488.62725575 281.0516466 1487.5900539 280.90086154 1486.5214217 280.74550723 C1484.199725 280.41453743 1481.87794377 280.0841601 1479.55608967 279.75429629 C1478.34257832 279.58144107 1477.12906697 279.40858584 1475.87878254 279.23049258 C1418.67867408 271.12147027 1361.08399025 264.96531887 1303.3495467 262.38222598 C1302.41197529 262.33985812 1301.47440388 262.29749026 1300.50842121 262.25383853 C1282.70305404 261.47015098 1264.92126459 261.17914326 1247.0995467 261.19472598 C1245.16380787 261.19563235 1245.16380787 261.19563235 1243.18896321 261.19655703 C1224.16542772 261.22067133 1205.28920838 261.44293953 1186.3495467 263.38222598 C1184.41111897 263.57558535 1184.41111897 263.57558535 1182.43353108 263.77285098 C1101.39579017 272.01951951 1021.56519905 296.77555612 948.3495467 352.38222598 C947.42013264 353.11828066 946.49071858 353.85433535 945.53314045 354.61269473 C939.55041887 359.4209987 933.86059851 364.48587063 928.24407795 369.71035098 C925.6917928 372.0663065 923.09378424 374.35164599 920.4745467 376.63222598 C910.12942994 385.92783814 900.9919787 396.51530713 892.3495467 407.38222598 C891.46750051 408.43994386 890.58326613 409.49583965 889.69720295 410.55019473 C875.66011534 427.4186744 863.87006647 446.15414202 853.3495467 465.38222598 C852.87597737 466.24041934 852.40240803 467.0986127 851.91448811 467.98281191 C832.19864093 503.93485724 818.55903682 542.50076336 809.3495467 582.38222598 C809.07417073 583.56913027 808.79879475 584.75603457 808.51507405 585.97890566 C802.6040381 611.89625073 798.88200747 638.16186276 796.5995467 664.63222598 C796.54038075 665.31174319 796.48121479 665.9912604 796.42025593 666.69136904 C794.53919901 688.72775784 794.19338892 710.77491661 794.14422444 732.88002871 C794.1349991 735.70630352 794.12437806 738.53257272 794.11382225 741.35884284 C794.08942912 748.10146156 794.06970883 754.84408538 794.05173702 761.58672394 C794.03068606 769.40598364 794.00362754 777.22521538 793.9766219 785.04445742 C793.90840131 805.63619756 793.84820345 826.22796365 793.7870467 846.81972598 C793.6426717 892.87535098 793.4982967 938.93097598 793.3495467 986.38222598 C693.6895467 986.38222598 594.0295467 986.38222598 491.3495467 986.38222598 C491.3495467 1099.57222598 491.3495467 1212.76222598 491.3495467 1329.38222598 C591.0095467 1329.38222598 690.6695467 1329.38222598 793.3495467 1329.38222598 C793.3495467 1594.70222598 793.3495467 1860.02222598 793.3495467 2133.38222598 C588.25744866 2133.5033619 588.25744866 2133.5033619 509.66210905 2133.52672087 C489.11072138 2133.5328443 468.55933376 2133.53910797 448.00794626 2133.54580396 C445.52219369 2133.54661349 443.03644113 2133.5474186 440.55068856 2133.54821924 C400.94501118 2133.56101256 361.33934668 2133.5835185 321.73367709 2133.61111764 C281.01778196 2133.63943881 240.30189396 2133.65788774 199.58598915 2133.66397095 C193.83098238 2133.66483537 188.07597564 2133.66581228 182.3209689 2133.66685771 C181.18833623 2133.66705998 180.05570357 2133.66726224 178.8887487 2133.66747064 C160.67970934 2133.67101143 142.47069203 2133.68491383 124.26166165 2133.70272208 C105.94138644 2133.72041687 87.62113303 2133.72712164 69.30084958 2133.72273011 C58.42557333 2133.72045388 47.55037702 2133.72648224 36.67511526 2133.74461861 C29.39660978 2133.75592387 22.11815624 2133.75617812 14.83964708 2133.74772142 C10.70131449 2133.74322144 6.56313236 2133.7432644 2.42481633 2133.75687552 C-19.52809608 2133.82488731 -41.0224363 2132.89346552 -62.4629533 2127.75722598 C-63.53440594 2127.5019916 -64.60585857 2127.24675723 -65.70977947 2126.98378848 C-101.92746008 2118.02249497 -135.36752086 2101.41967086 -164.6504533 2078.38222598 C-166.09291424 2077.2607416 -166.09291424 2077.2607416 -167.5645158 2076.11660098 C-195.53611955 2053.8383325 -218.05798289 2026.01331166 -234.6504533 1994.38222598 C-235.07971111 1993.56850527 -235.50896892 1992.75478457 -235.95123455 1991.91640566 C-255.86502329 1953.65266317 -264.17422808 1912.65224062 -264.03267928 1869.73177268 C-264.02449404 1866.20773591 -264.03407491 1862.68373384 -264.04118982 1859.1597008 C-264.0512924 1852.98226457 -264.05043013 1846.804908 -264.04213919 1840.62747018 C-264.02978378 1831.37963226 -264.03492083 1822.13185808 -264.04328711 1812.88401859 C-264.05704527 1797.11741401 -264.05665756 1781.35083853 -264.04844448 1765.58423136 C-264.04017749 1749.61664903 -264.03846029 1733.64908582 -264.04465648 1717.68150233 C-264.045044 1716.67126161 -264.04543152 1715.66102088 -264.04583078 1714.6201668 C-264.04743068 1710.50530593 -264.04907681 1706.39044507 -264.05078161 1702.27558424 C-264.06663295 1663.98818573 -264.06773308 1625.70080005 -264.05933925 1587.41339968 C-264.05909087 1586.2798688 -264.05884248 1585.14633792 -264.05858657 1583.97845761 C-264.05833778 1582.84310476 -264.05808899 1581.7077519 -264.05783266 1580.53799442 C-264.05025992 1545.93389008 -264.04831042 1511.32979105 -264.05190059 1476.72568606 C-264.05213303 1474.40747351 -264.0523645 1472.08926096 -264.052595 1469.7710484 C-264.05352642 1460.45486159 -264.05448243 1451.13867477 -264.0554743 1441.82248796 C-264.05822517 1415.78069668 -264.05993708 1389.73890539 -264.06083271 1363.69711398 C-264.06087365 1362.51128176 -264.06091458 1361.32544955 -264.06095676 1360.10368303 C-264.0621844 1322.32400942 -264.05880494 1284.54433766 -264.05228397 1246.76466464 C-264.05207322 1245.53950885 -264.05186248 1244.31435306 -264.05164534 1243.05207134 C-264.04821059 1223.15696146 -264.04455216 1203.26185162 -264.04087482 1183.36674179 C-264.02630608 1104.46288115 -264.02698228 1025.55903577 -264.04156658 946.6551752 C-264.04523022 926.77004592 -264.0488634 906.88491664 -264.05228397 886.99978732 C-264.05249532 885.775349 -264.05270666 884.55091069 -264.05292441 883.28936819 C-264.05939399 845.54869121 -264.06213559 807.8080155 -264.06083271 770.06733798 C-264.06079196 768.8823791 -264.0607512 767.69742023 -264.06070921 766.4765535 C-264.05977173 740.46358223 -264.05787073 714.45061108 -264.0551012 688.43763994 C-264.0541138 679.12983552 -264.05317455 669.82203109 -264.05224907 660.51422666 C-264.0520169 658.19873656 -264.05178071 655.88324647 -264.05154048 653.56775637 C-264.04796124 618.97383346 -264.05100604 584.37991651 -264.05858657 549.78599434 C-264.05883495 548.65246346 -264.05908334 547.51893257 -264.05933925 546.35105227 C-264.0595873 545.21961706 -264.05983535 544.08818185 -264.06009091 542.92246072 C-264.06836924 504.74439145 -264.06531429 466.56633756 -264.04949702 428.38827048 C-264.04784 424.28649688 -264.04622988 420.18472326 -264.04465648 416.08294963 C-264.04426586 415.07632055 -264.04387524 414.06969147 -264.04347279 413.03255847 C-264.0375615 397.10975187 -264.04166906 381.18696441 -264.0499635 365.26415954 C-264.05791007 349.59785017 -264.05509414 333.93157302 -264.04092124 318.26526773 C-264.03293465 309.08771957 -264.03304855 299.9102599 -264.04536603 290.73271603 C-264.05273414 284.62623852 -264.04909424 278.51982946 -264.03676547 272.41336018 C-264.03009105 268.9591486 -264.02782329 265.5051123 -264.03921502 262.05090902 C-264.09254386 241.57908531 -262.80811329 221.53427435 -258.0254533 201.56972598 C-257.77021892 200.49827334 -257.51498455 199.4268207 -257.2520158 198.32289981 C-246.77807505 155.99175188 -225.81873568 115.9777191 -195.6504533 84.38222598 C-194.391476 82.95258182 -193.14041698 81.51589205 -191.9004533 80.06972598 C-186.30246865 73.63403816 -180.18362961 67.85764993 -173.6504533 62.38222598 C-172.89296795 61.74607363 -172.89296795 61.74607363 -172.12017986 61.09706973 C-157.42060909 48.83176837 -141.6273431 38.23554621 -124.6504533 29.38222598 C-123.84108318 28.95586856 -123.03171306 28.52951113 -122.19781658 28.09023379 C-83.92953902 8.17093923 -42.92748685 -0.14157195 0 0 Z " fill="#FFFFFF" transform="translate(263.65045329835266,-0.3822259772568941)"/>
</svg>
